<?xml version="1.0" encoding="UTF-8" standalone="no"?>
<svg
   xmlns:dc="http://purl.org/dc/elements/1.1/"
   xmlns:cc="http://creativecommons.org/ns#"
   xmlns:rdf="http://www.w3.org/1999/02/22-rdf-syntax-ns#"
   xmlns:svg="http://www.w3.org/2000/svg"
   xmlns="http://www.w3.org/2000/svg"
   xmlns:sodipodi="http://sodipodi.sourceforge.net/DTD/sodipodi-0.dtd"
   xmlns:inkscape="http://www.inkscape.org/namespaces/inkscape"
   version="1.0"
   width="1308.000000pt"
   height="904.000000pt"
   viewBox="0 0 1308.000000 904.000000"
   preserveAspectRatio="xMidYMid meet"
   id="svg64"
   sodipodi:docname="Wearvana_logo.svg"
   inkscape:version="0.92.5 (2060ec1f9f, 2020-04-08)"
   inkscape:export-filename="/home/daniel/Descargas/Wearvana_logo.png"
   inkscape:export-xdpi="200"
   inkscape:export-ydpi="200">
  <metadata
     id="metadata70">
    <rdf:RDF>
      <cc:Work
         rdf:about="">
        <dc:format>image/svg+xml</dc:format>
        <dc:type
           rdf:resource="http://purl.org/dc/dcmitype/StillImage" />
        <dc:title />
      </cc:Work>
    </rdf:RDF>
  </metadata>
  <defs
     id="defs68" />
  <sodipodi:namedview
     pagecolor="#ffffff"
     bordercolor="#666666"
     borderopacity="1"
     objecttolerance="10"
     gridtolerance="10"
     guidetolerance="10"
     inkscape:pageopacity="0"
     inkscape:pageshadow="2"
     inkscape:window-width="1832"
     inkscape:window-height="1016"
     id="namedview66"
     showgrid="false"
     inkscape:zoom="0.4916113"
     inkscape:cx="636.5901"
     inkscape:cy="705.28182"
     inkscape:window-x="88"
     inkscape:window-y="27"
     inkscape:window-maximized="1"
     inkscape:current-layer="g62" />
  <g
     transform="matrix(0.1,0,0,-0.1,9.7088304,900.76372)"
     id="g62"
     style="fill:#000000;stroke:none">
    <path
       d="m 1385,8527.4248 c -676.20653,-15.7432 -1056.39844,-607.5765 -867,-1169 11,-30 45,-116 77,-190 962.7457,-2510.5742 1554.6839,-3877.9626 2475,-6026 229.7148,-404.10689 396.6941,-573.79168 695,-578.99998 h 1300 c 323.6974,53.45613 477.3285,297.29962 589,506.99998 263.8443,672.2647 468.7468,1347.8185 688,2040 2,47 10,93 16,101 19,23 69,28 108,12 27,-11 34,-20 34,-41 220.2796,-681.0122 477.5045,-1430.6006 724,-2132 130.516,-342.6987 304.4969,-434.07468 516,-461.99998 440.3149,5.09552 955.448,-1.22118 1440,1 283.3066,2.4215 419.7048,156.13699 489,357 914.594,2247.56888 1757.234,4301.12858 2671,6377.99998 56.247,153.3708 50.217,212.2559 48,318 2.101,377.0362 -349.623,860.2983 -805,866 -143,16 -4047,10 -4064,-7 -15,-15 -59,-118 -71,-168 -335.1554,-1029.6132 -583.3793,-1773.9963 -921,-2700 -11,-39 -74,-115 -96,-115 -6,0 -27,15 -46,33 -30,27 -37,42 -46,97 -310.7229,897.0673 -633.6598,1843.896 -924,2695 -67,174 -64,171 -108,179 -47,9 -3675,14 -3922,5 z m 3824,-2044 c 37,-19 45,-58 20,-104 -329.5834,-908.22 -556.6635,-1523.1606 -890,-2362 -11,-50 -70,-139 -93,-139 -22,0 -75,76 -87,126 -327.7407,762.332 -665.4384,1650.4491 -959,2323 -43.5752,91.3317 -35,124 -20,151 11,20 21,20 1006,20 853,0 999,-2 1023,-15 z m 4454,-43 c 26,-22 30,-68 11,-120 -327.2938,-815.4451 -605.9425,-1478.5784 -935,-2266 -36,-109 -44,-121 -96,-135 -29,-8 -43,-7 -73,9 -36,19 -50,41 -50,86 -301.5658,801.6343 -584.2209,1580.5218 -865,2352 0,60 2,67 25,79 37,19 1960,14 1983,-5 z"
       id="path60"
       inkscape:connector-curvature="0"
       sodipodi:nodetypes="ccccccccccccccccccsccsccccccccscccscccccccccc" />
  </g>
</svg>
